<?xml version="1.0" encoding="UTF-8" standalone="no" ?>
<!DOCTYPE svg PUBLIC "-//W3C//DTD SVG 1.1//EN" "http://www.w3.org/Graphics/SVG/1.1/DTD/svg11.dtd">
<svg xmlns="http://www.w3.org/2000/svg" xmlns:xlink="http://www.w3.org/1999/xlink" version="1.1" width="640" height="480" viewBox="0 0 640 480" xml:space="preserve">
<desc>Created with Fabric.js 3.6.6</desc>
<defs>
</defs>
<g transform="matrix(1 0 0 1 320.01 240.36)"  >
<path style="stroke: none; stroke-width: 1; stroke-dasharray: none; stroke-linecap: butt; stroke-dashoffset: 0; stroke-linejoin: miter; stroke-miterlimit: 4; fill: rgb(250,250,250); fill-rule: nonzero; opacity: 1;"  transform=" translate(-255.52, -207.87)" d="m 379.77 220.83 c -1.47 -11.55 -5.04 -22.52 -10.63 -32.57 c -4.87 -8.78 -11.13 -16.58 -18.59 -23.21 l 0.02 -0.02 l -78.38 -67.4 a 2.24 2.5 0 0 0 -0.18 -0.16 c -2.6 -2.24 -6.13 -3.46 -9.93 -3.46 c -3.8 0 -7.47 1.23 -10.31 3.47 c -3.07 2.39 -4.82 5.58 -4.94 8.96 c -0.11 3.16 1.23 6.2 3.8 8.56 c 5.04 4.46 10.07 9.01 15.12 13.57 c 4.89 4.43 9.93 8.98 14.94 13.42 l -95.99 -0.07 c -10.98 0 -18.45 5.77 -19.99 15.44 c -0.68 4.23 0.52 8.89 3.18 12.45 c 2.83 3.78 6.93 5.86 11.56 5.86 l 7.32 0.01 c 10.11 0 20.26 -0.03 30.41 -0.05 l 9.67 -0.03 l -87.12 72.17 l -0.34 0.28 c -4.87 4.17 -8.05 10.03 -8.74 16.06 c -0.52 4.57 0.43 8.75 2.75 12.08 c 2.77 3.97 7.09 6.16 12.18 6.16 c 4.99 0 10.09 -2.12 14.35 -5.98 l 47.05 -43.11 c -0.2 2.1 -0.45 5.19 -0.42 7.43 c 0.05 3.55 1.07 10.67 2.69 16.45 c 3.33 11.88 8.93 22.76 16.66 32.3 c 8.04 9.93 17.84 17.81 29.11 23.4 c 11.92 5.9 24.73 8.9 38.08 8.9 l 0.13 0 c 13.39 -0.03 26.24 -3.08 38.2 -9.05 c 11.29 -5.66 21.08 -13.57 29.1 -23.5 c 7.72 -9.59 13.32 -20.48 16.64 -32.35 a 73.93 82.79 0 0 0 3.14 -18.08 c 0.41 -5.93 0.23 -11.97 -0.52 -17.94 z m -85.71 56.95 c -29.42 0 -53.28 -23.9 -53.28 -53.38 c 0 -29.48 23.86 -53.38 53.28 -53.38 c 29.42 0 53.28 23.9 53.28 53.38 c 0 29.48 -23.86 53.38 -53.28 53.38 z m 30.73 -58.07 c 0.43 8.8 -2.71 16.97 -8.22 23.02 c -5.61 6.16 -13.61 10.03 -22.55 10.03 c -8.94 0 -16.95 -3.87 -22.55 -10.03 c -5.51 -6.05 -8.64 -14.22 -8.21 -23.01 c 0.43 -8.55 4.15 -16.09 9.76 -21.43 c 5.52 -5.25 12.92 -8.46 21.01 -8.46 c 8.09 0 15.49 3.2 21.01 8.46 c 5.61 5.34 9.33 12.88 9.77 21.43 z" stroke-linecap="round" />
</g>
</svg>