<?xml version="1.0"?>
<svg width="511.002" height="415.763" xmlns="http://www.w3.org/2000/svg" xmlns:svg="http://www.w3.org/2000/svg">
 <g class="layer">
  <title>Layer 1</title>
  <path d="m379.77,220.83c-1.47,-11.55 -5.04,-22.52 -10.63,-32.57c-4.87,-8.78 -11.13,-16.58 -18.59,-23.21l0.02,-0.02l-78.38,-67.4a2.24,2.5 0 0 0 -0.18,-0.16c-2.6,-2.24 -6.13,-3.46 -9.93,-3.46c-3.8,0 -7.47,1.23 -10.31,3.47c-3.07,2.39 -4.82,5.58 -4.94,8.96c-0.11,3.16 1.23,6.2 3.8,8.56c5.04,4.46 10.07,9.01 15.12,13.57c4.89,4.43 9.93,8.98 14.94,13.42l-95.99,-0.07c-10.98,0 -18.45,5.77 -19.99,15.44c-0.68,4.23 0.52,8.89 3.18,12.45c2.83,3.78 6.93,5.86 11.56,5.86l7.32,0.01c10.11,0 20.26,-0.03 30.41,-0.05l9.67,-0.03l-87.12,72.17l-0.34,0.28c-4.87,4.17 -8.05,10.03 -8.74,16.06c-0.52,4.57 0.43,8.75 2.75,12.08c2.77,3.97 7.09,6.16 12.18,6.16c4.99,0 10.09,-2.12 14.35,-5.98l47.05,-43.11c-0.2,2.1 -0.45,5.19 -0.42,7.43c0.05,3.55 1.07,10.67 2.69,16.45c3.33,11.88 8.93,22.76 16.66,32.3c8.04,9.93 17.84,17.81 29.11,23.4c11.92,5.9 24.73,8.9 38.08,8.9l0.13,0c13.39,-0.03 26.24,-3.08 38.2,-9.05c11.29,-5.66 21.08,-13.57 29.1,-23.5c7.72,-9.59 13.32,-20.48 16.64,-32.35a73.93,82.79 0 0 0 3.14,-18.08c0.41,-5.93 0.23,-11.97 -0.52,-17.94zm-85.71,56.95c-29.42,0 -53.28,-23.9 -53.28,-53.38c0,-29.48 23.86,-53.38 53.28,-53.38c29.42,0 53.28,23.9 53.28,53.38c0,29.48 -23.86,53.38 -53.28,53.38zm30.73,-58.07c0.43,8.8 -2.71,16.97 -8.22,23.02c-5.61,6.16 -13.61,10.03 -22.55,10.03c-8.94,0 -16.95,-3.87 -22.55,-10.03c-5.51,-6.05 -8.64,-14.22 -8.21,-23.01c0.43,-8.55 4.15,-16.09 9.76,-21.43c5.52,-5.25 12.92,-8.46 21.01,-8.46c8.09,0 15.49,3.2 21.01,8.46c5.61,5.34 9.33,12.88 9.77,21.43z" id="svg_1"/>
 </g>
</svg>
