<?xml version="1.0" encoding="utf-8"?>
<!-- Svg Vector Icons : http://www.onlinewebfonts.com/icon -->
<!DOCTYPE svg PUBLIC "-//W3C//DTD SVG 1.1//EN" "http://www.w3.org/Graphics/SVG/1.1/DTD/svg11.dtd">
<svg version="1.1" xmlns="http://www.w3.org/2000/svg" xmlns:xlink="http://www.w3.org/1999/xlink" x="0px" y="0px" viewBox="0 0 256 256" enable-background="new 0 0 256 256" xml:space="preserve">
<metadata> Svg Vector Icons : http://www.onlinewebfonts.com/icon </metadata>
<g><g><path fill="#000000" d="M66.7,194.1h-9.1c-0.3-15.4-1.2-29.9-2.6-43.5h-0.1L41,194.1h-6.9l-13.8-43.5h-0.1c-1,13-1.7,27.5-1.9,43.5H10c0.5-19.4,1.9-37.6,4-54.5h11.3l13.1,40.1h0.1l13.2-40.1h10.8C64.9,159.4,66.3,177.6,66.7,194.1"/><path fill="#000000" d="M106.2,153.8c-3.7,20.2-8.6,34.8-14.7,44c-4.7,7.1-9.9,10.6-15.6,10.6c-1.5,0-3.3-0.5-5.6-1.3v-4.9c1.1,0.2,2.3,0.2,3.8,0.2c2.6,0,4.7-0.7,6.4-2.2c1.9-1.8,2.9-3.8,2.9-6c0-1.5-0.7-4.6-2.3-9.3l-10-31.1h8.9l7.2,23.3c1.6,5.3,2.3,9,2,11.1c3.9-10.5,6.7-22,8.2-34.3H106.2"/><path fill="#000000" d="M146.1,178.9c0,4.6-1.7,8.4-5.1,11.4c-3.4,3-7.9,4.4-13.6,4.4c-5.3,0-10.5-1.7-15.5-5.1l2.3-4.7c4.3,2.1,8.2,3.2,11.7,3.2c3.3,0,5.9-0.7,7.7-2.2s3-3.5,3-6.1c0-3.3-2.3-6-6.4-8.3c-3.8-2.1-11.4-6.5-11.4-6.5c-4.1-3-6.2-6.3-6.2-11.6c0-4.4,1.5-8,4.6-10.7c3.1-2.7,7.1-4.1,12-4.1c5.1,0,9.6,1.3,13.8,4l-2.1,4.7c-3.5-1.5-7-2.3-10.5-2.3c-2.8,0-4.9,0.7-6.5,2s-2.4,3.1-2.4,5.2c0,3.2,2.3,6,6.6,8.4c3.9,2.1,11.7,6.6,11.7,6.6C144,170.4,146.1,173.6,146.1,178.9"/><path fill="#000000" d="M162.4,183.1c-2.2-3.6-3.3-9.3-3.3-17.1c0-13.7,4.2-20.6,12.5-20.6c4.4,0,7.5,1.6,9.6,4.9c2.2,3.6,3.3,9.2,3.3,17c0,13.8-4.2,20.8-12.5,20.8C167.7,188.1,164.5,186.4,162.4,183.1 M194.8,195.4l-10-4.9c0.9-0.7,1.7-1.5,2.5-2.4c4.2-5,6.4-12.4,6.4-22.2c0-18-7.1-27.1-21.2-27.1c-6.9,0-12.3,2.3-16.2,6.9c-4.2,5-6.4,12.4-6.4,22.1c0,9.6,1.9,16.6,5.6,21.1c3.4,4,8.6,6.1,15.6,6.1c2.6,0,5-0.3,7.1-1l13,7.6L194.8,195.4"/><path fill="#000000" d="M227.5,194.1h-25.9v-54.6h8.7v47.9h17.2V194.1"/><path fill="#000000" d="M233.7,194h1.4v-5.5h1.9v-1.1h-5.3v1.1h1.9L233.7,194L233.7,194z M244.7,194h1.3v-6.7h-2l-1.7,4.6l-1.8-4.6h-2v6.7h1.3v-5.1h0.1l1.9,5.1h1l1.9-5.1V194"/><path fill="#000000" d="M238.4,121.2c-5.3-0.1-9.3,0.4-12.8,1.9c-1,0.4-2.6,0.4-2.7,1.6c0.5,0.5,0.6,1.4,1.1,2.1c0.8,1.3,2.2,3.1,3.4,4c1.4,1.1,2.8,2.1,4.2,3c2.6,1.6,5.5,2.5,7.9,4.1c1.4,0.9,2.9,2.1,4.3,3.1c0.7,0.5,1.2,1.4,2.1,1.7v-0.2c-0.5-0.6-0.6-1.4-1.1-2.1c-0.7-0.7-1.3-1.3-2-1.9c-1.9-2.6-4.3-4.8-6.8-6.6c-2.1-1.4-6.7-3.4-7.6-5.9c0,0-0.1-0.1-0.1-0.1c1.4-0.1,3.2-0.7,4.5-1.1c2.2-0.6,4.3-0.5,6.6-1.1c1.1-0.3,2.1-0.6,3.2-0.9v-0.6c-1.2-1.2-2-2.8-3.3-3.9c-3.3-2.9-7-5.7-10.8-8.1c-2-1.3-4.7-2.2-6.8-3.3c-0.8-0.4-2.1-0.6-2.6-1.3c-1.2-1.4-1.9-3.3-2.7-5.1c-1.9-3.6-3.8-7.6-5.4-11.5c-1.2-2.6-1.9-5.1-3.3-7.5c-6.8-11.2-14.1-18-25.4-24.7c-2.4-1.4-5.3-2-8.4-2.7c-1.6-0.1-3.3-0.2-4.9-0.3c-1.1-0.5-2.1-1.7-3-2.3c-3.8-2.4-13.4-7.5-16.2-0.7c-1.8,4.3,2.6,8.5,4.1,10.7c1.1,1.5,2.6,3.2,3.3,4.9c0.5,1.1,0.6,2.3,1.1,3.5c1.1,2.9,2,6.1,3.4,8.8c0.7,1.4,1.5,2.8,2.4,4.1c0.5,0.7,1.4,1.1,1.6,2.2c-0.9,1.3-1,3.3-1.5,4.9c-2.4,7.4-1.4,16.7,1.9,22.2c1.1,1.6,3.5,5.3,6.9,3.9c3-1.2,2.3-4.9,3.2-8.2c0.2-0.8,0.1-1.3,0.5-1.9v0.1c0.9,1.9,1.9,3.6,2.7,5.5c2,3.2,5.6,6.6,8.6,8.8c1.6,1.2,2.8,3.2,4.8,4v-0.2h-0.1c-0.4-0.6-1-0.9-1.5-1.3c-1.2-1.2-2.5-2.6-3.4-3.9c-2.8-3.7-5.2-7.8-7.4-12c-1.1-2-2-4.3-2.8-6.3c-0.4-0.8-0.4-2-1.1-2.4c-1,1.4-2.4,2.7-3.2,4.5c-1.3,2.8-1.4,6.3-1.9,9.9c-0.3,0.1-0.1,0-0.3,0.1c-2.1-0.5-2.8-2.7-3.6-4.6c-2-4.7-2.3-12.2-0.6-17.6c0.5-1.4,2.4-5.7,1.6-7.1c-0.4-1.3-1.7-2-2.4-3c-0.8-1.3-1.8-2.8-2.4-4.2c-1.6-3.7-2.4-7.8-4.1-11.5c-0.8-1.7-2.2-3.5-3.3-5.1c-1.3-1.8-2.6-3-3.6-5.1c-0.3-0.7-0.8-1.9-0.3-2.7c0.1-0.5,0.4-0.7,0.9-0.9c0.8-0.7,3.3,0.2,4.1,0.6c2.4,1,4.5,1.9,6.5,3.3c0.9,0.6,1.9,1.9,3.1,2.2h1.4c2.1,0.5,4.5,0.1,6.5,0.7c3.5,1.1,6.6,2.8,9.5,4.6c8.6,5.5,15.7,13.2,20.5,22.5c0.8,1.5,1.1,2.9,1.9,4.5c1.4,3.2,3.1,6.5,4.5,9.7c1.4,3.1,2.7,6.3,4.7,8.8c1,1.4,4.9,2.1,6.7,2.8c1.3,0.6,3.3,1.1,4.5,1.9c2.2,1.4,4.5,3,6.6,4.5C234.9,118.3,238.2,119.9,238.4,121.2"/><path fill="#000000" d="M171.3,63.9c-1.1,0-1.9,0.1-2.7,0.3v0.1h0.1c0.5,1.1,1.4,1.8,2.1,2.7c0.5,1.1,1,2.1,1.5,3.2c0.1-0.1,0.1-0.1,0.1-0.1c0.9-0.6,1.4-1.7,1.4-3.3c-0.4-0.5-0.5-0.9-0.8-1.4C172.7,64.8,171.9,64.5,171.3,63.9"/></g></g>
</svg>