<svg xmlns="http://www.w3.org/2000/svg" height="1638.2865" width="1302.8444"><rect id="backgroundrect" width="100%" height="100%" x="0" y="0" fill="none" stroke="none"/><defs><clipPath id="a" clipPathUnits="userSpaceOnUse"><path d="M0 1024h1024V0H0z" id="svg_1"/></clipPath></defs><g class="currentLayer" style=""><title>Layer 1</title><path d="M917.783 952.19v-94.746h-35.855v122.747h120.26v-28z" id="svg_2" class="selected" fill="#ffffff" fill-opacity="1"/><g clip-path="url(#a)" id="svg_3" class="" fill="#ffffff" fill-opacity="1"><path d="M480.6363372099999,1064.2470598599998 h26.77993305 c0.66399834,7.059982349999999 -1.41732979,10.627973429999999 -7.18931536,11.181305379999998 c-5.72398569,0.54799863 -11.48263796,1.0133308 -17.2266236,1.0266640999999999 c-23.870606989999995,0.058666520000000014 -26.429267259999996,-2.73599316 -24.98260421,-26.575933559999996 c0.026666600000000002,-0.4439988900000001 0.039999900000000005,-0.8879977800000002 0.08399979000000002,-1.3293300099999998 c0.8933311000000002,-8.88931111 4.1679895799999995,-12.25196937 13.0799673,-12.66530167 c6.8666495,-0.31733254 13.75463228,-0.11866637000000002 20.63461508,-0.17599956 c7.16398209,-0.058666520000000014 13.999965,0.44933221000000007 15.74129398,8.834644579999999 h17.59728934 c2.4799938,-14.077298139999998 -2.133328,-21.74127898 -15.6532942,-22.533277 c-17.411956469999996,-1.02266411 -34.97057924,-0.8639978400000001 -52.39053568999999,0.11466638000000003 c-11.70930406,0.65733169 -17.72262236,7.559981099999999 -18.40528732,19.026619099999998 c-0.5919985200000001,9.938641819999999 -0.5599986,19.966616749999996 -0.009333310000000003,29.91192522 c0.58799853,10.60397349 5.5466527999999995,15.90396024 15.91729354,18.557286939999997 c3.8266571,0.9786642200000001 7.713314049999999,1.7199957 11.5733044,2.5706602399999996 h34.666579999999996 c2.78799303,-0.5919985200000001 5.569319409999999,-1.21733029 8.365312419999999,-1.77066224 c7.48664795,-1.4799963 14.84662955,-3.89065694 16.351959119999997,-12.373302399999998 c1.4853296200000001,-8.37064574 1.4146631299999999,-17.017290789999997 2.06132818,-26.01993495 h-46.995882509999994 zm-137.866322,-84.58378854 v-121.85702868999999 h-35.231911919999995 v93.05976735 l-72.31448587999999,-93.62643259999999 H180.02775539999993 V979.8179375999999 h35.077245639999994 v-91.13843881999999 l1.6346625799999999,-0.41333230000000004 l71.52648785,91.39577150999999 zm63.435841409999995,-60.846514549999995 v-35.09724559 c16.27729264,0 32.1599196,-0.0026666600000000004 48.04387989,0.003999990000000001 c2.21599446,0 4.43065559,0.06399984 6.64665005,0.07866647 c19.73461733,0.133333 21.80394549,5.8933186 19.821283779999998,25.30527007 c-0.64533172,6.31731754 -5.43065309,9.470642989999998 -11.07463898,9.56664275 c-20.974614229999997,0.35733244 -41.958561769999996,0.14266631000000002 -63.437174739999996,0.14266631000000002 m75.25714518999999,44.541221979999996 c0.47599881,5.41731979 0.73066484,10.8533062 1.0933306,16.399959 h35.18791203 c0,-7.677314139999999 0.29199927000000003,-14.747963129999999 -0.059999850000000014,-21.786612199999997 c-0.77466473,-15.479961299999998 -3.05199237,-22.31327755 -18.13195467,-24.92793768 c-0.78933136,-0.13733299 -1.4853296200000001,-0.8186646200000001 -3.34132498,-1.8933285999999998 c15.158628769999998,-3.3733249 20.58928186,-13.610632639999999 21.307946729999998,-26.934599329999998 c0.35599911,-6.6133168 0.23466608,-13.355966609999998 -0.64533172,-19.90928356 c-2.1386613199999998,-15.933293499999998 -7.99064669,-22.23061109 -23.68127413,-25.17993705 a135.65699418999998,-135.65699418999998 0 0 1 -23.79060719,-2.32132753 c-30.423923939999998,-0.26266601 -60.85051453999999,-0.11999970000000003 -91.27710513999999,-0.08799978000000001 c-2.3733274,0.0026666600000000004 -4.7453214699999995,0.2933326 -7.527981179999999,0.4799988 v122.51169372 h35.379911549999996 v-33.7999155 c8.0533132,0 15.34529497,-0.14799963000000002 22.62927676,0.03333325 c12.858634519999999,0.3199992 25.79193552,0.11466638000000003 38.543903639999996,1.50532957 c10.44264056,1.13866382 13.38796653,5.39465318 14.313297549999998,15.910626889999998 m97.50508957,-33.00525082 h91.71443737999999 v-24.75327145 h-91.86510367 v-22.113278049999998 h97.13575716 v-26.02260161 h-133.0530007 v122.32502751999999 h134.69032994 v-26.92393269 h-98.62242011 zm-425.47760296999996,-69.38249320999999 c0.005333320000000001,-1.22399694 -0.75066479,-2.4533272 -1.12933051,-3.61065764 h-35.119912199999995 c0,21.731945669999998 0.06933316,42.805226319999996 -0.04799988,63.87850697 c-0.03333325,5.751985619999999 -0.41333230000000004,11.525304519999999 -1.02933076,17.24662355 c-0.8866644500000002,8.214646129999998 -6.069318159999999,13.386633199999999 -13.88263196,13.778632219999999 c-16.13062634,0.8133313000000001 -32.37725239,1.40799648 -48.46254551,0.35466578 c-12.95596761,-0.8466645500000001 -17.163957089999997,-6.6613166800000005 -17.311956719999998,-19.85995035 c-0.2533327,-22.662610009999998 -0.13733299,-45.330553339999994 -0.25066604000000003,-67.99583000999999 c-0.011999970000000002,-2.5266603499999998 -0.51333205,-5.05198737 -0.7866647,-7.559981099999999 h-35.093245599999996 c0,30.461257179999997 -1.05066404,60.0265166 0.3599991,89.47444297999999 c0.9786642200000001,20.4666155 9.466643,28.533261999999997 30.1199247,31.98925336 c29.97459173,5.0199874499999995 60.25851602,4.8133213 90.23577441,0.35466578 c22.89060944,-3.4039914899999997 30.65992335,-11.902636909999998 31.67058749,-34.75857977 c1.2266636,-27.719930699999995 0.61866512,-55.52519451999999 0.72799818,-83.2931251 m597.23317358,71.16115543 l26.01993495,-51.14920546 l26.297267589999997,51.14920546 zm3.7333239999999996,-75.07447898 l-66.63316675,122.84369288999999 h38.48390379 l11.12663885,-21.206613649999998 h79.11046888999999 l11.166638749999999,21.129280509999997 h38.886569449999996 l-66.99716584,-122.76635974999999 zM401.23520238,1072.1897066699999 l-1.64399589,0.38933236000000004 a710341.87214088,-710341.87214088 0 0 1 -40.026566599999995,-51.599871 h-31.199921999999997 v69.2398269 h19.243951889999998 v-50.515873709999994 l1.9599950999999998,-0.69599826 L389.95256391999993,1090.324328 h31.15592211 v-69.1864937 h-19.87195032 zm250.66070668,0.03466658 l-1.59066269,0.41333230000000004 c-13.239966899999999,-17.08395729 -26.47726714,-34.169247909999996 -39.30123508,-50.71853987 h-31.071922319999995 V1090.08032861 h19.70261741 v-52.266536 l41.18523037,52.573201899999994 h30.678589969999997 v-68.25182937 h-19.60261766 zm-393.65768252000004,-9.71197572 h52.23453608 v-14.28929761 H258.24089319999996 v-12.86263451 h55.09586226 v-14.435963909999998 H238.3342763 V1090.16566173 h76.40380898999999 v-14.71862987 h-56.499858749999994 zm451.88420361999994,-0.02399994 h51.273205149999995 v-13.919965199999998 H710.319763 v-12.84663455 h54.093198099999995 v-13.733299 h-74.4531472 V1090.11632852 h75.65581085999999 v-14.602630159999999 h-55.493194599999995 zM543.07484778,1090.3029947199998 h19.067952329999997 v-68.25182937 h-19.067952329999997 zM232.25962481999994,440.3086197099999 s-13.950631789999997,-69.33182667 59.83185042,-153.29695009 c73.78914886,-83.96245676 129.15034379,-114.49438042999998 188.94219431,-130.39834067 l-0.10399974000000001,0.061333180000000015 l0.2266661,-0.061333180000000015 S434.18712,183.96926056000007 434.18712,225.30915720999997 c0,11.99997 1.91332855,20.24528272 4.56398859,25.75326895 c3.5173245399999997,7.31731504 9.087977279999999,9.805308819999999 14.08929811,9.82930876 c4.2133228,0.02399994 6.679983299999999,-1.7079957300000002 12.013303299999999,-3.77865722 V481.01118462 s0.5773318900000001,3.6093243099999994 3.8173237899999997,7.886646949999999 c4.6666549999999996,6.15065129 11.99997,13.65729919 25.779935549999998,13.733299 c23.50527457,-0.15066629 53.06920065999999,-26.70126658 53.06920065999999,-26.70126658 v-181.28488012 c0,-18.442620559999998 -13.199967,-40.7065649 -27.186598699999998,-48.34521247 c0,0 1.9066619,-0.11999970000000003 4.99198752,-0.11866637000000002 c9.23464358,-0.0026666600000000004 29.045260719999998,1.0533307 40.08389979,9.48664295 c3.0666589999999996,-3.55332445 52.55720194,-59.553184449999996 140.62098178,-76.78514136999999 l-0.042666560000000006,0.04933321 l0.2399994,-0.04933321 s-48.70787822999999,57.354523279999995 -63.974506729999995,85.79711884 c-2.71332655,0.16133293 -3.1093255599999994,53.96119842999999 -2.6573266899999997,107.7197307 c0.43866557000000006,51.8932036 1.67066249,103.75707393999998 2.38532737,107.34506497 c0,0 5.19732034,7.72531402 18.431953919999998,7.79198052 c14.927962679999998,0.07599981 40.08389979,-9.59330935 79.52380119,-51.05053903999999 l-0.0013333300000000002,0.0013333300000000002 v-0.0013333300000000002 s-1.0399973999999998,2.36132743 -3.1333254999999998,6.54398364 c-11.30130508,22.583943539999996 -53.29853341999999,98.29442093 -127.89834692,142.29964424999997 l-0.003999990000000001,-0.003999990000000001 l-0.0066666500000000005,0.003999990000000001 l-48.38654569999999,-40.92389769 l-1.23599691,-1.03199742 l-52.77320139999999,55.955860109999996 l-0.07999980000000001,-0.007999980000000002 l-0.0066666500000000005,0.007999980000000002 s-120.30903255999999,-10.17730789 -170.5595736,-82.68645995 l0.23866607,0.08666645000000002 l-0.06266651000000001,-0.08666645000000002 s7.609314309999999,2.96132593 16.19729284,3.12265886 c10.062641509999999,0.18399954 20.629281759999998,-3.49199127 20.629281759999998,-20.30528257 v-170.46624049999997 c0,-8.70531157 -5.99331835,-18.470620489999998 -19.149285459999998,-18.43328725 c-11.83197042,0.030666590000000007 -28.81859462,7.991980019999999 -52.013203299999994,31.790587189999997 c-48.978544219999996,50.24654105 -69.3198267,97.95708843999999 -69.3198267,97.95708843999999 l-0.03333325,-0.18133288 l-0.07999980000000001,0.18133288 M499.52029,729.3172305199998 c93.84776537999998,0 182.07954479999998,-36.5465753 248.4393789,-102.9064094 c66.3598341,-66.36116743 102.9064094,-154.59161351999998 102.9064094,-248.4393789 c0,-93.84776537999998 -36.5465753,-182.07821146999999 -102.9064094,-248.4393789 c-66.3598341,-66.3598341 -154.59161351999998,-102.9064094 -248.4393789,-102.9064094 c-93.84776537999998,0 -182.07954479999998,36.5465753 -248.4393789,102.9064094 c-66.3598341,66.36116743 -102.9064094,154.59161351999998 -102.9064094,248.4393789 c0,93.84776537999998 36.5465753,182.07821146999999 102.9064094,248.4393789 c66.3598341,66.3598341 154.59161351999998,102.9064094 248.4393789,102.9064094 " stroke-width="0" id="svg_4" fill="#ffffff" fill-opacity="1"/><path d="M499.52029,10.451027690000046 c202.97549256,0 367.52041453,164.54492197 367.52041453,367.51908119999996 c0,202.97682589 -164.54492197,367.52174785999995 -367.52041453,367.52174785999995 c-202.97549256,0 -367.52041453,-164.54625529999998 -367.52041453,-367.52041453 c0,-202.97549256 164.54492197,-367.52041453 367.52041453,-367.52041453 m0,745.49013627 c100.95974759999999,0 195.87551031,-39.31590170999999 267.26466517,-110.70638989999999 c71.38915485999999,-71.38782153 110.70372324,-166.30358424 110.70372324,-267.26333184 c0,-100.95974759999999 -39.31456838,-195.87551031 -110.70372324,-267.26599849999997 c-71.38915485999999,-71.38648819999999 -166.30491757,-110.70105657999999 -267.26466517,-110.70105657999999 c-100.95974759999999,0 -195.87551031,39.31456838 -267.26466517,110.70372324 s-110.70372324,166.30625089999998 -110.70372324,267.26466517 c0,100.95974759999999 39.31456838,195.87551031 110.70372324,267.26466517 S398.56054239999986,755.9411639599999 499.52029,755.9411639599999 " stroke-width="0" id="svg_5" fill="#ffffff" fill-opacity="1"/></g></g></svg>