<?xml version="1.0"?>
<svg width="50" height="50" xmlns="http://www.w3.org/2000/svg" xmlns:svg="http://www.w3.org/2000/svg" version="1.1" xml:space="preserve">
 <g class="layer">
  <title>Layer 1</title>
  <g id="XMLID_1013_">
   <path d="m33.4,20.56l-2.58,0l0,-3.79l-4.22,-6.27l-10,0l0,29l14.22,0l0,-4.22l2.58,0l0,-14.72l0,0zm-1.52,12.3l-10.67,0l0,-9.89l10.67,0l0,9.89z" id="XMLID_1014_"/>
   <polygon id="XMLID_1017_" points="21.91399383544922,30.13719367980957 22.584365844726562,30.13719367980957 23.339658737182617,28.336606979370117 24.090476989746094,30.13719367980957 24.75637435913086,30.13719367980957 23.661436080932617,27.656076431274414 24.792137145996094,25.104082107543945 24.126230239868164,25.104082107543945 23.339658737182617,26.975547790527344 22.54861068725586,25.104082107543945 21.87823486328125,25.104082107543945 23.008935928344727,27.656076431274414 "/>
   <polygon id="XMLID_1018_" points="25.72614288330078,26.805408477783203 26.54404640197754,29.28652572631836 26.87918472290039,29.28652572631836 27.697093963623047,26.805408477783203 27.697093963623047,30.13719367980957 28.31378746032715,30.13719367980957 28.31378746032715,25.104082107543945 27.65687370300293,25.104082107543945 26.70935821533203,27.967987060546875 25.770877838134766,25.104082107543945 25.10944175720215,25.104082107543945 25.10944175720215,30.13719367980957 25.72614288330078,30.13719367980957 "/>
   <polygon id="XMLID_1019_" points="31.20980453491211,29.27943992614746 29.5919189453125,29.27943992614746 29.5919189453125,25.104082107543945 28.975221633911133,25.104082107543945 28.975221633911133,30.13719367980957 31.20980453491211,30.13719367980957 "/>
  </g>
 </g>
</svg>